<svg width="257" height="54" viewBox="0 0 257 54" fill="none" xmlns="http://www.w3.org/2000/svg">
<circle cx="4.5" cy="15.5" r="1.5" stroke="#500F71" stroke-linecap="round" stroke-linejoin="round"/>
<path d="M0.5 29.5H80.5062" stroke="#09798D" stroke-linecap="round" stroke-linejoin="round"/>
<path d="M173.5 29.5H253.506" stroke="#09798D" stroke-linecap="round" stroke-linejoin="round"/>
<path fill-rule="evenodd" clip-rule="evenodd" d="M183.115 12.7145L184.73 13.9638L184.792 12.1215L186.541 11.2106L184.581 10.4871L184.048 8.67486L182.774 10.07L180.695 9.86088L181.868 11.4466L181.117 13.1296L183.115 12.7145Z" stroke="#F3A802" stroke-width="1.2" stroke-linecap="round" stroke-linejoin="round"/>
<path fill-rule="evenodd" clip-rule="evenodd" d="M52.5906 45.961L50.9767 47.4293L50.8028 45.2151L48.9195 44.0858L50.9262 43.2561L51.3761 41.0899L52.7903 42.7913L54.9517 42.5818L53.8189 44.4631L54.7049 46.4998L52.5906 45.961Z" stroke="#F3A802" stroke-width="1.2" stroke-linecap="round" stroke-linejoin="round"/>
<path d="M253 17L256 20" stroke="#095C8D" stroke-width="1.2" stroke-linecap="round"/>
<path d="M256 17L253 20" stroke="#095C8D" stroke-width="1.2" stroke-linecap="round"/>
<circle cx="20.5" cy="38.5" r="1.5" stroke="#17BFDD" stroke-width="1.2"/>
<path fill-rule="evenodd" clip-rule="evenodd" d="M73.1544 18.9502L69.3508 21L70.0772 16.6584L67 13.5836L71.2526 12.9502L73.1544 9L75.0562 12.9502L79.3088 13.5836L76.2316 16.6584L76.958 21L73.1544 18.9502Z" stroke="#F3A802" stroke-width="1.2" stroke-linecap="round" stroke-linejoin="round"/>
<circle cx="206.5" cy="19.5" r="1.5" stroke="#17BFDD" stroke-width="1.2"/>
<circle cx="228.5" cy="38.5" r="1.5" stroke="#17BFDD" stroke-width="1.2"/>
<path opacity="0.5" fill-rule="evenodd" clip-rule="evenodd" d="M194.088 43.0906L192.18 44.1393L192.544 41.9181L191 40.345L193.134 40.0209L194.088 38L195.042 40.0209L197.176 40.345L195.632 41.9181L195.997 44.1393L194.088 43.0906Z" stroke="#095C8D" stroke-linecap="round" stroke-linejoin="round"/>
<path opacity="0.499023" d="M43.2963 5.04052L43.7195 6.15931" stroke="#095C8D" stroke-linecap="round" stroke-linejoin="round"/>
<path opacity="0.499023" d="M46.8457 7.56575L47.9848 7.15013" stroke="#095C8D" stroke-linecap="round" stroke-linejoin="round"/>
<path opacity="0.499023" d="M45.8363 11.7534L45.4131 10.6346" stroke="#095C8D" stroke-linecap="round" stroke-linejoin="round"/>
<path opacity="0.499023" d="M42.2869 9.22813L41.147 9.64375" stroke="#095C8D" stroke-linecap="round" stroke-linejoin="round"/>
<path opacity="0.499023" d="M229 8.32093L231.701 8.8112" stroke="#095C8D" stroke-linecap="round" stroke-linejoin="round"/>
<path opacity="0.499023" d="M234.901 6.65034L235.4 4" stroke="#095C8D" stroke-linecap="round" stroke-linejoin="round"/>
<path opacity="0.499023" d="M240.08 10.8175L237.38 10.3264" stroke="#095C8D" stroke-linecap="round" stroke-linejoin="round"/>
<path opacity="0.499023" d="M233.902 11.9526L233.402 14.6037" stroke="#095C8D" stroke-linecap="round" stroke-linejoin="round"/>
<path d="M149.3 31.437L116.255 40.3637C115.01 40.6931 113.171 39.8768 112.827 38.6372L109.312 25.1398" stroke="#09798D" stroke-linecap="round" stroke-linejoin="round"/>
<path d="M151.345 28.1384L150.894 27.921V27.921L151.345 28.1384ZM151.112 27.4708L150.894 27.921L151.112 27.4708ZM150.752 29.9937L151.238 30.1115V30.1115L150.752 29.9937ZM150.545 30.8112L150.062 30.6792V30.6792L150.545 30.8112ZM148.944 33.7588L149.3 34.1102L149.3 34.1101L148.944 33.7588ZM148.755 33.8786L148.588 33.4074V33.4074L148.755 33.8786ZM136.278 37.4832L136.15 37L136.278 37.4832ZM136.021 36.5168L136.15 37L136.021 36.5168ZM148.312 32.9743L148.474 33.4473C148.55 33.421 148.619 33.3765 148.675 33.3177L148.312 32.9743ZM149.58 30.5472L150.062 30.6792V30.6792L149.58 30.5472ZM149.756 29.8501L149.27 29.7324L149.756 29.8501ZM150.444 27.7036L150.894 27.921V27.921L150.444 27.7036ZM110.92 21.7946L111.391 21.9611V21.9611L110.92 21.7946ZM110.615 21.1566L110.781 20.6851L110.615 21.1566ZM110.663 22.518L111.134 22.6853V22.6853L110.663 22.518ZM108.896 28.646L108.401 28.5764C108.392 28.6384 108.395 28.7015 108.41 28.7624L108.896 28.646ZM109.615 31.7203L109.128 31.8333L109.615 31.7203ZM110.492 35.4798L110.005 35.5946L110.492 35.4798ZM111.343 38.9884L111.827 38.8651H111.827L111.343 38.9884ZM111.664 40.1962L111.183 40.3334V40.3334L111.664 40.1962ZM111.851 40.7763L112.304 40.565L112.304 40.565L111.851 40.7763ZM112.987 41.8551L112.734 42.2867H112.734L112.987 41.8551ZM114.578 42.219L114.449 41.7358H114.449L114.578 42.219ZM125.736 39.1867L125.603 38.7048L125.736 39.1867ZM127.95 38.5726L127.817 38.0909L127.95 38.5726ZM132.445 37.3377L132.574 37.8209L132.445 37.3377ZM133.057 37.6924L133.54 37.5639V37.5639L133.057 37.6924ZM132.702 38.3041L132.831 38.7873H132.831L132.702 38.3041ZM128.223 39.5347L128.357 40.0165L128.223 39.5347ZM126.003 40.1504L125.87 39.6686L126.003 40.1504ZM114.835 43.1854L114.963 43.6686L114.835 43.1854ZM112.482 42.7183L112.23 43.1499L112.482 42.7183ZM110.945 41.1989L110.491 41.4102H110.491L110.945 41.1989ZM110.703 40.4706L110.222 40.6078L110.703 40.4706ZM110.374 39.2349L110.858 39.1117L110.374 39.2349ZM109.518 35.7094L109.032 35.8242L109.518 35.7094ZM108.639 31.9394L108.152 32.0524H108.152L108.639 31.9394ZM107.902 28.788L107.416 28.9049H107.416L107.902 28.788ZM107.892 28.6051L108.388 28.6712H108.388L107.892 28.6051ZM109.716 22.1979L109.244 22.0304V22.0304L109.716 22.1979ZM109.977 21.4614L109.505 21.2949V21.2949L109.977 21.4614ZM151.795 28.3559C152.035 27.8585 151.826 27.2607 151.329 27.0205L150.894 27.921V27.921L151.795 28.3559ZM151.238 30.1115C151.399 29.4435 151.534 28.896 151.795 28.3559L150.894 27.921C150.58 28.5721 150.424 29.2229 150.266 29.8759L151.238 30.1115ZM151.027 30.9432C151.107 30.6505 151.174 30.3723 151.238 30.1115L150.266 29.8759C150.202 30.1384 150.138 30.4028 150.062 30.6792L151.027 30.9432ZM149.3 34.1101C150.326 33.0712 150.749 31.9568 151.027 30.9432L150.062 30.6792C149.807 31.6125 149.444 32.5409 148.588 33.4074L149.3 34.1101ZM148.922 34.3499C149.065 34.2995 149.194 34.2175 149.3 34.1102L148.588 33.4074L148.588 33.4074L148.922 34.3499ZM136.407 37.9664C138.91 37.3005 147.092 34.9987 148.922 34.3499L148.588 33.4074C146.803 34.0401 138.663 36.3316 136.15 37L136.407 37.9664ZM135.183 37.257C135.325 37.7907 135.873 38.1084 136.407 37.9664L136.15 37L135.183 37.257ZM135.893 36.0336C135.359 36.1755 135.041 36.7233 135.183 37.257L136.15 37L135.893 36.0336ZM148.149 32.5014C146.203 33.1694 138.364 35.3763 135.893 36.0336L136.15 37C138.617 36.3439 146.489 34.1285 148.474 33.4473L148.149 32.5014ZM149.098 30.4152C148.872 31.2397 148.583 31.9588 147.948 32.631L148.675 33.3177C149.47 32.4764 149.816 31.579 150.062 30.6792L149.098 30.4152ZM149.27 29.7324C149.211 29.9747 149.156 30.2012 149.098 30.4152L150.062 30.6792C150.125 30.4484 150.184 30.2071 150.242 29.9678L149.27 29.7324ZM149.994 27.4861C149.629 28.2408 149.436 29.0452 149.27 29.7324L150.242 29.9678C150.412 29.265 150.584 28.5644 150.894 27.921L149.994 27.4861ZM151.329 27.0205C150.832 26.7803 150.234 26.9888 149.994 27.4862L150.894 27.921L150.894 27.921L151.329 27.0205ZM111.391 21.9611C111.575 21.4404 111.302 20.8691 110.781 20.6851L110.448 21.628V21.628L111.391 21.9611ZM111.134 22.6853C111.219 22.448 111.304 22.2066 111.391 21.9611L110.448 21.628C110.362 21.8725 110.276 22.1132 110.192 22.3506L111.134 22.6853ZM109.391 28.7155C109.651 26.8678 110.321 24.9743 111.134 22.6853L110.192 22.3506C109.388 24.6146 108.678 26.6089 108.401 28.5764L109.391 28.7155ZM110.102 31.6073C109.816 30.377 109.562 29.2797 109.382 28.5296L108.41 28.7624C108.588 29.5082 108.842 30.6013 109.128 31.8333L110.102 31.6073ZM110.978 35.365C110.683 34.1131 110.378 32.7973 110.102 31.6073L109.128 31.8333C109.404 33.0229 109.709 34.3405 110.005 35.5946L110.978 35.365ZM111.827 38.8651C111.583 37.9051 111.286 36.6697 110.978 35.365L110.005 35.5946C110.313 36.9006 110.612 38.1429 110.858 39.1117L111.827 38.8651ZM112.145 40.0591C112.057 39.7511 111.95 39.3457 111.827 38.8651L110.858 39.1117C110.982 39.596 111.092 40.012 111.183 40.3334L112.145 40.0591ZM112.304 40.565C112.306 40.5685 112.302 40.5605 112.292 40.5337C112.283 40.5092 112.272 40.4755 112.257 40.4313C112.228 40.343 112.191 40.2201 112.145 40.0591L111.183 40.3334C111.275 40.6541 111.348 40.8814 111.398 40.9876L112.304 40.565ZM113.239 41.4235C112.716 41.1174 112.385 40.738 112.304 40.565L111.398 40.9876C111.595 41.4114 112.112 41.9227 112.734 42.2867L113.239 41.4235ZM114.449 41.7358C114.203 41.8013 113.763 41.73 113.239 41.4235L112.734 42.2867C113.357 42.651 114.086 42.8673 114.706 42.7022L114.449 41.7358ZM125.603 38.7048C122.632 39.5272 118.92 40.5468 114.449 41.7358L114.706 42.7022C119.181 41.5121 122.897 40.4915 125.87 39.6686L125.603 38.7048ZM127.817 38.0909C127.131 38.2813 126.393 38.4862 125.603 38.7048L125.87 39.6686C126.66 39.4498 127.398 39.2449 128.084 39.0544L127.817 38.0909ZM132.317 36.8545C131.209 37.1492 129.708 37.5658 127.817 38.0909L128.084 39.0544C129.978 38.5287 131.472 38.1139 132.574 37.8209L132.317 36.8545ZM133.54 37.5639C133.398 37.0301 132.85 36.7125 132.317 36.8545L132.574 37.8209H132.574L133.54 37.5639ZM132.831 38.7873C133.365 38.6454 133.682 38.0976 133.54 37.5639L132.574 37.8209L132.574 37.8209L132.831 38.7873ZM128.357 40.0165C130.248 39.4914 131.735 39.0788 132.831 38.7873L132.574 37.8209C131.471 38.1141 129.979 38.5285 128.09 39.0529L128.357 40.0165ZM126.137 40.6323C126.93 40.4126 127.67 40.2072 128.357 40.0165L128.09 39.0529C127.403 39.2436 126.663 39.449 125.87 39.6686L126.137 40.6323ZM114.963 43.6686C119.443 42.4773 123.162 41.4557 126.137 40.6323L125.87 39.6686C122.897 40.4915 119.181 41.5121 114.706 42.7022L114.963 43.6686ZM112.23 43.1499C112.949 43.5709 113.967 43.9337 114.963 43.6686L114.706 42.7022C114.085 42.8673 113.357 42.6509 112.734 42.2867L112.23 43.1499ZM110.491 41.4102C110.806 42.0851 111.508 42.7281 112.23 43.1499L112.734 42.2867C112.112 41.9227 111.595 41.4114 111.398 40.9876L110.491 41.4102ZM110.222 40.6078C110.309 40.9131 110.402 41.2193 110.491 41.4102L111.398 40.9876C111.348 40.8814 111.275 40.6543 111.183 40.3334L110.222 40.6078ZM109.889 39.3582C110.013 39.8464 110.126 40.2729 110.222 40.6078L111.183 40.3334C111.092 40.012 110.982 39.596 110.858 39.1117L109.889 39.3582ZM109.032 35.8242C109.34 37.1315 109.641 38.3807 109.889 39.3582L110.858 39.1117C110.612 38.1429 110.313 36.9006 110.005 35.5946L109.032 35.8242ZM108.152 32.0524C108.427 33.2405 108.733 34.5596 109.032 35.8242L110.005 35.5946C109.707 34.3322 109.402 33.015 109.126 31.8264L108.152 32.0524ZM107.416 28.9049C107.595 29.6508 107.856 30.775 108.152 32.0524L109.126 31.8264C108.83 30.551 108.568 29.422 108.388 28.6712L107.416 28.9049ZM107.397 28.5389C107.381 28.661 107.387 28.7851 107.416 28.9049L108.388 28.6712L108.388 28.6712L107.397 28.5389ZM109.244 22.0304C108.435 24.3063 107.678 26.4299 107.397 28.5389L108.388 28.6712C108.653 26.6858 109.369 24.6653 110.187 22.3654L109.244 22.0304ZM109.505 21.2949C109.418 21.5424 109.331 21.7874 109.244 22.0304L110.187 22.3654C110.273 22.1225 110.36 21.8766 110.448 21.628L109.505 21.2949ZM110.781 20.6851C110.261 20.5011 109.689 20.7741 109.505 21.2949L110.448 21.628V21.628L110.781 20.6851Z" fill="#09798D"/>
<path fill-rule="evenodd" clip-rule="evenodd" d="M136.922 48.0175C139.168 43.8313 137.231 39.8174 135.229 35.23L132.574 35.918C133.776 38.6716 132.417 41.9388 130.583 41.9783C128.846 42.0155 127.267 43.7163 128.829 45.5968C126.595 44.7188 125.021 47.9025 126.942 48.911C122.647 49.25 123.441 53.6171 126.843 52.926C130.244 52.2361 134.674 52.2025 136.922 48.0175Z" stroke="#09798D" stroke-linecap="round" stroke-linejoin="round"/>
<path d="M129.894 13.7123C129.324 8.40442 128.944 4.86586 124.676 2.09527C120.408 -0.674037 116.315 1.54654 112.822 2.63118C109.329 3.71583 110.894 8.20313 115.024 6.33513C113.787 8.2557 116.908 10.4301 118.503 8.47365C118.055 11.025 120.401 11.8135 122.019 10.9648C123.727 10.0686 126.416 11.5737 126.758 14.7584" stroke="#09798D" stroke-linecap="round" stroke-linejoin="round"/>
<path fill-rule="evenodd" clip-rule="evenodd" d="M110.671 22.7161C110.242 21.1201 111.184 19.4774 112.778 19.0423L143.895 10.551C145.498 10.1137 147.15 11.0616 147.582 12.6655L151.117 25.8008C151.547 27.3967 150.605 29.0395 149.01 29.4746L117.893 37.9659C116.291 38.4032 114.638 37.4553 114.207 35.8514L110.671 22.7161Z" stroke="#09798D" stroke-linecap="round" stroke-linejoin="round"/>
<path d="M114.844 19C115.462 21.6412 114.188 24.328 112 25" stroke="#09798D" stroke-linecap="round" stroke-linejoin="round"/>
<path d="M147.894 14.6036C145.262 15.2148 142.577 13.9656 141.894 11.7584" stroke="#09798D" stroke-linecap="round" stroke-linejoin="round"/>
<path d="M146.093 29.7584C145.312 27.2694 146.884 24.4487 149.894 23.7584" stroke="#09798D" stroke-linecap="round" stroke-linejoin="round"/>
<path d="M114 34.1591C116.647 33.534 119.332 34.8065 120 37" stroke="#09798D" stroke-linecap="round" stroke-linejoin="round"/>
<ellipse cx="130.394" cy="24.7584" rx="4.5" ry="6" stroke="#09798D" stroke-linecap="round" stroke-linejoin="round"/>
</svg>
